M48
; DRILL file {KiCad (5.1.0)-1} date 2023/1/26 13:19:23
; FORMAT={3:3/ absolute / metric / keep zeros}
; #@! TF.CreationDate,2023-01-26T13:19:23+08:00
; #@! TF.GenerationSoftware,Kicad,Pcbnew,(5.1.0)-1
FMAT,2
METRIC
T1C0.800
T2C1.000
T3C1.100
T4C1.500
%
G90
G05
T1
X018825Y021275
X039300Y045860
X030340Y025400
X040500Y025400
X042850Y036350
X053010Y036350
X044225Y033025
X044225Y025405
X046765Y033025
X046765Y025405
X049305Y033025
X049305Y025405
X018825Y026275
X042875Y041150
X047875Y041150
X039300Y035700
X042640Y044875
X052800Y044875
T2
X051250Y002665
X031225Y030775
X051825Y040650
X003650Y030775
X020050Y030775
X040400Y020675
X040400Y006175
X042900Y006175
X045400Y020675
X045400Y006175
X003650Y022950
X015595Y003425
X018135Y003425
X020675Y003425
X023215Y003425
X040050Y049825
X008000Y030775
X003650Y002665
X032500Y012750
X029005Y002615
X031545Y002615
X034085Y002615
X036625Y002615
X003600Y015225
T3
X045260Y050600
X047800Y050600
X050340Y050600
T4
G00X037300Y013025
M15
G01X037300Y014325
M16
G05
G00X048500Y013025
M15
G01X048500Y014325
M16
G05
T0
M30
